<?xml version="1.0" standalone="no"?><!DOCTYPE svg PUBLIC "-//W3C//DTD SVG 1.1//EN" "http://www.w3.org/Graphics/SVG/1.1/DTD/svg11.dtd"><svg t="1732778987202" class="icon" viewBox="0 0 1024 1024" version="1.1" xmlns="http://www.w3.org/2000/svg" p-id="17718" xmlns:xlink="http://www.w3.org/1999/xlink" width="200" height="200"><path d="M823.4 285.8H200.6c-17.9 0-32.5-14.6-32.5-32.5s14.6-32.5 32.5-32.5h622.8c17.9 0 32.5 14.6 32.5 32.5s-14.5 32.5-32.5 32.5zM855.9 512c0-17.9-14.5-32.5-32.5-32.5H200.6c-17.9 0-32.5 14.6-32.5 32.5s14.6 32.5 32.5 32.5h622.8c18 0 32.5-14.6 32.5-32.5z m0 258.7c0-17.9-14.5-32.5-32.5-32.5H200.6c-17.9 0-32.5 14.6-32.5 32.5s14.6 32.5 32.5 32.5h622.8c18 0 32.5-14.5 32.5-32.5z" fill="" p-id="17719"></path></svg>