<?xml version="1.0" standalone="no"?><!DOCTYPE svg PUBLIC "-//W3C//DTD SVG 1.1//EN" "http://www.w3.org/Graphics/SVG/1.1/DTD/svg11.dtd"><svg t="1732778719106" class="icon" viewBox="0 0 1024 1024" version="1.1" xmlns="http://www.w3.org/2000/svg" p-id="11467" xmlns:xlink="http://www.w3.org/1999/xlink" width="200" height="200"><path d="M614.08 731.392l-1.152-30.72 23.296-20.032c152.064-131.072 213.056-289.408 191.808-420.992-132.736-21.568-292.288 38.912-422.976 190.912l-19.712 22.976-30.272-0.704a199.68 199.68 0 0 0-122.112 35.264l142.144 95.36-28.48 51.328c-6.848 12.352-0.384 40 21.824 62.08 22.208 22.144 50.56 28.8 62.464 22.4l51.2-27.52 95.808 143.36a192.64 192.64 0 0 0 36.096-123.712z m259.648-527.36l7.872 2.048 1.984 7.808c35.648 133.568-0.768 338.624-205.632 515.2 3.072 83.456-26.496 150.144-95.36 218.816l-11.904 11.776-109.44-164.096c-38.4 20.736-96.64 7.808-137.92-33.344-41.472-41.28-54.4-99.2-32.64-138.432L128 514.752l11.776-11.712c67.008-66.752 134.016-96.128 216.768-94.208 176.256-204.992 383.104-240.128 517.184-204.8zM289.28 795.904c21.44 21.44 16.768 59.584-9.408 85.76q-34.496 34.56-126.272 49.92 19.008-95.36 49.92-126.272c26.24-26.176 64.256-30.976 85.76-9.408z m334.528-379.904a48 48 0 1 0 0 95.936 48 48 0 0 0 0-96z" fill="#3D3D3D" p-id="11468"></path></svg>