<?xml version="1.0" standalone="no"?><!DOCTYPE svg PUBLIC "-//W3C//DTD SVG 1.1//EN" "http://www.w3.org/Graphics/SVG/1.1/DTD/svg11.dtd"><svg t="1732780280268" class="icon" viewBox="0 0 1024 1024" version="1.1" xmlns="http://www.w3.org/2000/svg" p-id="51609" xmlns:xlink="http://www.w3.org/1999/xlink" width="200" height="200"><path d="M924.51 64.22H234.48c-4.93 0-8.96 4.03-8.96 8.96v62.73c0 4.93 4.03 8.96 8.96 8.96H879.7V790.1c0 4.93 4.03 8.96 8.96 8.96h62.73c4.93 0 8.96-4.03 8.96-8.96V100.07c0-19.83-16.01-35.85-35.84-35.85zM736.32 879.71H144.87V288.26h591.45v591.45z m44.81-672.1H100.06c-19.83 0-35.85 16.02-35.85 35.85v681.07c0 19.83 16.02 35.85 35.85 35.85h681.07c19.83 0 35.85-16.02 35.85-35.85V243.45c-0.01-19.83-16.03-35.84-35.85-35.84z" fill="#606060" p-id="51610"></path></svg>